<svg width="92" height="25" viewBox="0 0 92 25" fill="none" xmlns="http://www.w3.org/2000/svg">
<path d="M32.2132 20.6319V10.3221H32.3969L39.9014 20.6319H42.263V5.49177H39.639V15.7756H39.4553L31.9508 5.49177H29.5892V20.6319H32.2132ZM49.6888 20.8656C53.1525 20.8656 55.2779 18.6323 55.2779 14.8927C55.2779 11.1791 53.1525 8.91973 49.6888 8.91973C46.2514 8.91973 44.0998 11.1791 44.0998 14.8927C44.126 18.6323 46.2252 20.8656 49.6888 20.8656ZM49.6888 18.6842C47.852 18.6842 46.8025 17.3078 46.8025 14.8927C46.8025 12.5035 47.852 11.1011 49.6888 11.1011C51.5256 11.1011 52.5752 12.5035 52.5752 14.8927C52.5752 17.3078 51.5256 18.6842 49.6888 18.6842ZM57.6657 6.34876V9.23136H55.8289V11.3089H57.6657V17.5675C57.6657 19.8009 58.7153 20.6838 61.3917 20.6838C61.8903 20.6838 62.3889 20.6319 62.7824 20.554V18.5284C62.4676 18.5544 62.2576 18.5803 61.8903 18.5803C60.7882 18.5803 60.2897 18.0869 60.2897 16.9443V11.3089H62.7824V9.23136H60.2897V6.34876H57.6657ZM64.3568 20.6319H66.9808V9.15345H64.3568V20.6319ZM65.6688 7.25769C66.5347 7.25769 67.2432 6.55651 67.2432 5.69952C67.2432 4.81657 66.5347 4.1154 65.6688 4.1154C64.8029 4.1154 64.0944 4.81657 64.0944 5.69952C64.0944 6.55651 64.8029 7.25769 65.6688 7.25769ZM74.1705 20.8656C77.6341 20.8656 79.7595 18.6323 79.7595 14.8927C79.7595 11.1791 77.6341 8.91973 74.1705 8.91973C70.7331 8.91973 68.5814 11.1791 68.5814 14.8927C68.5814 18.6323 70.6806 20.8656 74.1705 20.8656ZM74.1705 18.6842C72.3337 18.6842 71.2841 17.3078 71.2841 14.8927C71.2841 12.5035 72.3337 11.1011 74.1705 11.1011C75.981 11.1011 77.0568 12.5035 77.0568 14.8927C77.0306 17.3078 75.981 18.6842 74.1705 18.6842ZM81.3077 20.6319H83.9316V13.9578C83.9316 12.2698 84.9288 11.205 86.4769 11.205C88.0775 11.205 88.8122 12.088 88.8122 13.8279V20.6319H91.4362V13.2047C91.4362 10.4519 90.0193 8.91973 87.4478 8.91973C85.7159 8.91973 84.5614 9.69881 84.0104 10.9973H83.8267V9.15345H81.2814C81.3077 9.15345 81.3077 20.6319 81.3077 20.6319Z" fill="#4C4C4D"/>
<path fill-rule="evenodd" clip-rule="evenodd" d="M4.42983 4.52274C5.19354 5.13884 5.46977 5.0902 6.8997 4.99292L20.3702 4.18226C20.6627 4.18226 20.419 3.89041 20.3215 3.85799L18.0791 2.25287C17.6566 1.9286 17.0717 1.53948 15.983 1.63676L2.95116 2.59335C2.47993 2.64199 2.38243 2.88519 2.57742 3.06353L4.42983 4.52274ZM5.24229 7.65191V21.79C5.24229 22.552 5.61602 22.8276 6.47722 22.779L21.2802 21.9197C22.1414 21.871 22.2389 21.3522 22.2389 20.7361V6.69533C22.2389 6.07922 21.9952 5.73874 21.4752 5.78738L6.006 6.69533C5.43727 6.74397 5.24229 7.03581 5.24229 7.65191ZM19.8503 8.41394C19.9478 8.83549 19.8503 9.27325 19.4278 9.32189L18.7128 9.46781V19.9092C18.0954 20.2335 17.5266 20.428 17.0392 20.428C16.2755 20.428 16.0805 20.1848 15.5117 19.4715L10.8482 12.1592V19.2283L12.3269 19.5525C12.3269 19.5525 12.3269 20.4118 11.1407 20.4118L7.8584 20.6064C7.7609 20.4118 7.8584 19.9416 8.18338 19.8444L9.04459 19.6012V10.2623L7.8584 10.165C7.7609 9.74344 8.00464 9.12733 8.67086 9.07869L12.1969 8.83549L17.0554 16.2288V9.6948L15.8205 9.54888C15.723 9.03005 16.113 8.64093 16.5842 8.59229L19.8503 8.41394ZM1.86246 1.29628L15.4305 0.307262C17.0879 0.161342 17.5266 0.258622 18.5666 1.02065L22.8889 4.05255C23.6038 4.57138 23.8476 4.7173 23.8476 5.28476V21.9359C23.8476 22.9735 23.4738 23.5896 22.1414 23.6869L6.39598 24.6435C5.38853 24.6922 4.9173 24.5462 4.39733 23.8815L1.19625 19.7471C0.627526 18.9851 0.383789 18.4176 0.383789 17.7528V2.95004C0.383789 2.09073 0.773769 1.39356 1.86246 1.29628Z" fill="#4C4C4D"/>
</svg>
