<svg width="70" height="17" viewBox="0 0 70 17" fill="none" xmlns="http://www.w3.org/2000/svg">
<path fill-rule="evenodd" clip-rule="evenodd" d="M56.9652 5.5915C57.2302 6.04882 57.3169 6.56914 57.3456 7.15408L57.3832 7.93374V13.3856L57.4217 14.1661C57.4986 15.4407 58.4386 16.3832 59.723 16.4633L60.4994 16.5018V7.93374L60.5378 7.15408C60.5697 6.57568 60.6556 6.04555 60.9248 5.58495C61.1991 5.11252 61.5928 4.72056 62.0665 4.44842C62.5401 4.17628 63.077 4.03355 63.6233 4.03454C64.1696 4.03554 64.706 4.18023 65.1786 4.45409C65.6513 4.72795 66.0436 5.12134 66.3161 5.59477C66.5812 6.05209 66.6638 6.58223 66.6957 7.15408L66.7342 7.93129V13.3856L66.7726 14.1661C66.8528 15.4473 67.7855 16.3897 69.074 16.4633L69.8504 16.5018V7.15408C69.8504 5.50115 69.1939 3.91588 68.0253 2.74686C66.8568 1.57783 65.2718 0.920746 63.6188 0.920095C62.7341 0.919162 61.8594 1.10704 61.0532 1.47117C60.2469 1.8353 59.5276 2.3673 58.9433 3.03163C58.3588 2.36756 57.6395 1.83569 56.8333 1.47145C56.0271 1.10721 55.1525 0.918973 54.2679 0.919277C52.9736 0.919277 51.7726 1.31197 50.7778 1.99018C50.1708 1.31279 48.8127 0.919277 48.0331 0.919277V16.5018L48.8127 16.4633C50.1168 16.3774 51.0592 15.4603 51.11 14.1661L51.1517 13.3856V7.93374L51.1901 7.15408C51.2229 6.56586 51.3047 6.04882 51.5705 5.58822C51.845 5.11609 52.2386 4.72422 52.7119 4.45175C53.1852 4.17928 53.7217 4.03573 54.2679 4.03545C54.8144 4.03557 55.3513 4.1794 55.8247 4.45251C56.2982 4.72562 56.6915 5.11842 56.9652 5.5915ZM3.62203 16.4642L4.40169 16.5018H16.0884L16.0499 15.7246C15.9444 14.4434 15.0371 13.5075 13.7519 13.4241L12.9722 13.3856H5.96101L15.3087 4.03464L15.2703 3.25825C15.2097 1.964 14.264 1.0289 12.9722 0.957728L12.1925 0.92255L0.505859 0.919277L0.54431 1.69894C0.646574 2.96782 1.56695 3.92337 2.84156 3.997L3.62203 4.03545H10.6332L1.28552 13.3864L1.32397 14.1661C1.40087 15.4505 2.32779 16.3807 3.62203 16.4633V16.4642ZM44.9741 3.20016C45.6978 3.92363 46.2718 4.78256 46.6634 5.7279C47.055 6.67324 47.2566 7.68647 47.2566 8.70972C47.2566 9.73297 47.055 10.7462 46.6634 11.6915C46.2718 12.6369 45.6978 13.4958 44.9741 14.2193C43.5122 15.68 41.5301 16.5006 39.4634 16.5006C37.3967 16.5006 35.4145 15.68 33.9526 14.2193C30.91 11.1767 30.91 6.24271 33.9526 3.20016C34.6755 2.47694 35.5339 1.90319 36.4786 1.5117C37.4233 1.1202 38.4358 0.918619 39.4585 0.918459C40.4827 0.917748 41.4971 1.11898 42.4435 1.51063C43.39 1.90229 44.2499 2.47669 44.9741 3.20098V3.20016ZM42.7693 5.4066C43.6457 6.28363 44.138 7.47274 44.138 8.71258C44.138 9.95242 43.6457 11.1415 42.7693 12.0186C41.8923 12.8949 40.7032 13.3872 39.4634 13.3872C38.2235 13.3872 37.0344 12.8949 36.1574 12.0186C35.281 11.1415 34.7887 9.95242 34.7887 8.71258C34.7887 7.47274 35.281 6.28363 36.1574 5.4066C37.0344 4.53024 38.2235 4.03796 39.4634 4.03796C40.7032 4.03796 41.8923 4.53024 42.7693 5.4066ZM23.1061 0.918459C24.1288 0.918726 25.1414 1.12044 26.0861 1.51208C27.0308 1.90371 27.8891 2.47761 28.612 3.20098C31.6553 6.24271 31.6553 11.1775 28.612 14.2193C27.15 15.68 25.1679 16.5006 23.1012 16.5006C21.0345 16.5006 19.0524 15.68 17.5904 14.2193C14.5479 11.1767 14.5479 6.24271 17.5904 3.20016C18.3134 2.47694 19.1717 1.90319 20.1164 1.5117C21.0611 1.1202 22.0737 0.918619 23.0963 0.918459H23.1061ZM26.4072 5.40497C27.2838 6.28203 27.7762 7.47132 27.7762 8.71135C27.7762 9.95139 27.2838 11.1407 26.4072 12.0177C25.5301 12.8941 24.341 13.3864 23.1012 13.3864C21.8614 13.3864 20.6722 12.8941 19.7952 12.0177C18.9189 11.1407 18.4266 9.9516 18.4266 8.71176C18.4266 7.47192 18.9189 6.28281 19.7952 5.40579C20.6722 4.52942 21.8614 4.03714 23.1012 4.03714C24.341 4.03714 25.5301 4.52942 26.4072 5.40579V5.40497Z" fill="#4C4C4D"/>
</svg>
