<svg width="79" height="22" viewBox="0 0 79 22" fill="none" xmlns="http://www.w3.org/2000/svg">
<path d="M10.8567 19.9618C9.67385 20.1695 8.47022 20.2318 7.22513 20.3977L3.42744 9.27471V20.875C2.24462 20.9995 1.16554 21.1655 0.0449219 21.3315V0.081543H3.1993L7.51562 12.1386V0.081543H10.8567V19.9618ZM17.3936 7.86353C18.6803 7.86353 20.6517 7.80126 21.8345 7.80126V11.1215C20.361 11.1215 18.6387 11.1215 17.3936 11.1838V16.1228C19.3443 15.9983 21.295 15.8322 23.2663 15.7699V18.9655L14.0732 19.692V0.081543H23.2663V3.40186H17.3936V7.86353ZM35.6137 3.40194H32.1689V18.6753C31.0483 18.6753 29.9277 18.6754 28.8488 18.7167V3.40194H25.404V0.081543H35.6139L35.6137 3.40194ZM41.0092 7.63532H45.554V10.9556H41.0092V18.4886H37.7509V0.081543H47.0273V3.40186H41.0092V7.63532ZM52.4228 15.5832C54.3113 15.6246 56.2203 15.7701 58.0674 15.8737V19.1526C55.0999 18.9657 52.1323 18.7792 49.1026 18.7167V0.081543H52.4228V15.5832ZM60.8688 19.3809C61.9272 19.4432 63.0478 19.5055 64.1269 19.6298V0.081543H60.8688V19.3809ZM78.6741 0.081543L74.4614 10.1878L78.6741 21.3315C77.4289 21.1655 76.1838 20.9372 74.9386 20.7297L72.5523 14.5872L70.1245 20.2318C68.9206 20.0241 67.7586 19.9618 66.5552 19.7958L70.83 10.0632L66.97 0.081543H70.5392L72.7182 5.66383L75.0425 0.081543H78.6741V0.081543Z" fill="#4C4C4D"/>
</svg>
